<?xml version="1.0" standalone="no"?>
<!DOCTYPE svg PUBLIC "-//W3C//DTD SVG 20010904//EN"
 "http://www.w3.org/TR/2001/REC-SVG-20010904/DTD/svg10.dtd">
<svg version="1.0" xmlns="http://www.w3.org/2000/svg"
 width="367.000000pt" height="367.000000pt" viewBox="0 0 367.000000 367.000000"
 preserveAspectRatio="xMidYMid meet">
<metadata>
Created by potrace 1.14, written by Peter Selinger 2001-2017
</metadata>
<g transform="translate(0.000000,367.000000) scale(0.100000,-0.100000)"
fill="#000000" stroke="none">
<path d="M2636 2638 c5 -15 -1 -17 -49 -16 -36 1 -54 6 -49 12 4 7 1 7 -9 0
-19 -15 -239 -17 -256 -2 -11 8 -12 7 -7 -6 3 -9 2 -16 -4 -16 -6 0 -13 6 -15
13 -4 10 -6 10 -6 0 -1 -7 -12 -13 -26 -13 -19 0 -23 -4 -18 -17 4 -10 2 -14
-5 -9 -6 3 -13 2 -17 -3 -9 -15 -37 0 -31 16 3 8 1 11 -4 8 -6 -3 -10 -1 -10
4 0 6 -3 10 -7 10 -5 -1 -10 -1 -13 0 -3 1 -58 2 -122 3 -81 0 -118 4 -118 12
0 8 -2 8 -8 0 -10 -15 -82 -16 -101 -1 -10 8 -13 8 -8 1 5 -8 -4 -12 -28 -12
-22 0 -33 4 -28 11 4 6 1 7 -8 1 -22 -14 -111 -15 -128 -1 -9 7 -12 8 -8 1 5
-8 -10 -11 -48 -11 -35 0 -52 3 -48 10 4 6 1 7 -8 1 -8 -5 -29 -9 -47 -10 -19
-2 -36 -5 -39 -8 -3 -3 -12 2 -20 12 -10 12 -13 13 -11 2 2 -8 -4 -14 -12 -15
-8 0 -15 -4 -15 -10 0 -5 -3 -14 -6 -20 -4 -5 -5 -22 -3 -37 1 -15 -2 -30 -7
-33 -5 -4 -5 -13 0 -24 12 -21 -2 -46 -20 -37 -8 4 -6 1 4 -7 9 -8 17 -18 17
-22 0 -4 -6 -2 -14 4 -9 8 -16 8 -20 2 -4 -5 3 -12 14 -16 20 -6 26 -20 12
-29 -4 -2 -14 1 -23 7 -10 9 -15 28 -14 67 1 30 -1 60 -5 65 -8 13 -7 27 3 43
5 7 4 12 -2 12 -6 0 -11 8 -11 18 0 22 -1 22 -140 21 -132 0 -130 0 -130 -16
0 -17 -10 -16 -33 2 -11 7 -26 11 -35 8 -8 -4 -13 -2 -10 3 4 5 -17 8 -48 6
-36 -3 -60 1 -71 10 -9 7 -14 8 -10 2 9 -15 -95 -15 -105 0 -6 8 -8 8 -8 0 0
-15 -180 -16 -198 -1 -10 8 -12 7 -10 -3 2 -8 -3 -15 -9 -16 -7 -1 -17 -2 -23
-3 -5 0 -6 -9 -3 -18 5 -13 2 -15 -11 -10 -9 4 -15 3 -11 -2 3 -6 -2 -14 -11
-19 -10 -6 -15 -16 -11 -26 4 -10 1 -16 -8 -16 -8 0 -15 -5 -15 -11 0 -5 5 -7
10 -4 6 4 10 -7 10 -25 0 -22 -4 -29 -12 -24 -10 6 -10 4 -1 -7 14 -14 18 -43
5 -35 -4 2 -9 -4 -9 -15 -1 -10 3 -19 8 -19 6 0 7 5 3 12 -5 7 -3 8 6 3 10 -6
9 -11 -5 -22 -11 -7 -13 -13 -6 -13 14 0 11 -41 -4 -52 -6 -4 -2 -8 8 -8 10 0
16 -4 13 -9 -3 -5 -14 -8 -24 -6 -9 1 -11 0 -4 -2 7 -3 9 -9 5 -15 -4 -8 0 -9
13 -4 15 5 16 4 7 -5 -6 -6 -9 -18 -6 -26 3 -8 0 -19 -8 -24 -10 -6 -10 -9 -1
-9 6 0 12 -8 12 -18 0 -10 -6 -24 -12 -31 -11 -12 -9 -13 7 -7 15 6 17 4 8 -5
-6 -6 -9 -18 -6 -26 3 -8 0 -19 -8 -24 -10 -6 -10 -9 -1 -9 6 0 12 -5 12 -11
0 -5 -6 -7 -12 -3 -9 5 -9 2 1 -9 11 -14 11 -20 0 -34 -10 -11 -10 -14 -1 -9
7 4 12 2 12 -8 0 -8 3 -21 6 -30 3 -9 1 -16 -6 -16 -6 0 -9 4 -6 9 3 4 -4 17
-17 27 -22 19 -22 19 -6 -1 9 -11 15 -29 14 -41 -1 -17 3 -20 24 -16 14 3 23
1 19 -3 -12 -12 51 -54 74 -50 12 3 17 1 14 -3 -4 -4 -17 -7 -29 -7 -13 -1
-21 -6 -19 -14 2 -9 -3 -11 -15 -7 -14 6 -15 5 -6 -5 10 -10 16 -9 30 4 14 12
23 13 37 5 14 -8 17 -7 12 1 -6 10 0 13 20 10 4 0 11 5 16 13 7 10 8 9 4 -4
-3 -10 0 -18 6 -18 7 0 6 -5 -2 -15 -6 -8 -10 -20 -7 -27 3 -8 6 -6 6 5 1 10
5 16 10 12 6 -3 8 7 5 22 -2 16 -1 23 4 16 5 -8 13 -9 22 -3 9 6 20 4 29 -3
12 -10 14 -9 9 5 -5 11 -2 15 10 14 9 -2 18 -8 20 -14 6 -19 22 -14 16 6 -5
14 -4 14 6 -2 10 -15 14 -16 21 -5 7 12 9 11 9 -1 0 -13 1 -13 10 0 7 11 10
11 10 2 0 -7 5 -10 10 -7 6 4 8 11 5 16 -4 5 -1 9 4 9 10 0 15 -13 12 -32 0
-4 8 -6 19 -5 11 1 20 8 21 17 0 10 2 11 6 2 2 -6 9 -9 14 -6 6 3 21 -2 34
-10 25 -17 34 -9 14 11 -8 8 -7 13 3 18 7 5 10 5 6 0 -4 -4 2 -20 12 -36 11
-15 17 -30 12 -32 -4 -3 -7 -39 -7 -81 l0 -75 -24 22 c-21 19 -21 17 4 -17 28
-37 28 -39 10 -52 -18 -14 -18 -14 1 -14 14 0 16 -2 5 -9 -11 -7 -11 -9 0 -14
11 -4 12 -7 2 -18 -8 -8 -13 -9 -13 -2 0 16 -28 24 -36 11 -4 -6 -3 -8 4 -4 6
3 17 -3 25 -14 7 -11 16 -17 19 -14 12 11 0 -66 -12 -81 -11 -13 -10 -15 2
-10 12 5 15 0 13 -23 -1 -16 -5 -35 -9 -41 -4 -6 -4 -11 1 -11 4 0 9 -11 9
-25 1 -15 -2 -22 -9 -18 -6 3 -7 1 -3 -6 6 -10 12 -32 20 -78 1 -6 14 -24 29
-39 19 -19 24 -31 17 -38 -7 -7 -14 -6 -22 2 -7 7 -16 12 -22 12 -5 0 -1 -6
10 -14 10 -8 29 -12 42 -9 14 3 22 1 22 -7 0 -10 3 -10 15 0 12 10 14 7 10
-19 -2 -17 1 -33 6 -37 5 -3 9 -2 8 3 -3 18 2 33 11 33 5 0 7 -7 4 -15 -4 -8
-1 -15 6 -15 6 0 8 5 5 10 -3 6 -2 10 4 10 5 0 11 -6 14 -12 3 -10 7 -10 20 1
10 8 17 9 17 3 0 -6 -4 -14 -10 -17 -5 -3 -10 -12 -9 -18 0 -8 2 -8 6 1 4 10
8 10 21 0 15 -11 15 -11 5 2 -8 10 -9 21 -3 30 9 15 11 14 14 -12 2 -16 27
-11 42 7 6 8 15 11 19 7 5 -4 2 4 -7 18 -15 25 -15 26 8 26 17 0 21 -3 13 -12
-7 -9 -4 -16 11 -24 17 -9 19 -14 9 -26 -10 -12 -9 -13 4 -8 8 3 19 13 22 22
6 15 8 15 15 -3 8 -18 9 -18 9 -2 1 10 5 16 11 12 5 -3 7 -13 4 -23 -4 -11 2
-8 15 8 22 27 27 21 10 -13 -10 -21 -10 -21 5 -3 9 11 16 24 16 29 0 4 5 5 10
2 8 -5 8 -11 1 -19 -8 -9 -5 -12 11 -11 11 1 26 8 32 16 11 14 36 24 36 13 0
-3 -10 -14 -22 -24 -19 -15 -21 -21 -10 -32 11 -11 12 -10 7 4 -4 11 1 20 14
28 16 8 21 8 21 -1 0 -7 3 -10 6 -7 3 4 0 16 -6 28 -10 19 -10 21 7 16 11 -3
28 0 39 8 13 10 14 14 4 13 -8 -2 -20 -6 -27 -10 -6 -4 -14 -3 -18 3 -7 12
-26 14 -24 3 3 -21 -3 -24 -18 -12 -15 12 -16 12 -8 -1 5 -9 -1 -7 -15 5 -13
11 -20 14 -15 6 5 -10 4 -12 -3 -7 -19 12 -14 26 8 23 11 -2 22 -6 26 -9 3 -4
15 -1 25 5 16 10 21 9 29 -3 9 -13 14 -7 11 12 -1 7 38 2 47 -6 3 -3 0 -12 -6
-19 -7 -8 -8 -18 -4 -22 4 -5 2 -6 -3 -2 -6 3 -17 2 -24 -2 -9 -6 -4 -8 14 -8
18 0 25 4 21 13 -3 7 0 16 5 20 6 3 9 15 6 25 -3 11 -1 17 4 13 5 -3 9 -13 9
-22 0 -15 2 -15 10 -2 6 10 10 11 10 3 0 -7 7 -13 16 -13 8 0 13 4 10 8 -3 5
13 8 35 8 21 0 39 -4 39 -9 0 -5 -7 -6 -16 -3 -8 3 -13 2 -10 -2 2 -4 -5 -9
-17 -9 -18 -2 -19 0 -7 8 12 8 12 10 1 7 -17 -5 -26 -48 -10 -48 5 0 7 5 3 11
-4 7 -1 10 7 7 8 -3 14 -11 14 -18 0 -7 10 -14 22 -15 12 -1 20 2 18 6 -3 4 2
12 10 19 12 10 18 10 30 0 12 -10 18 -10 30 0 12 10 18 10 30 0 8 -7 15 -9 15
-4 0 5 5 2 11 -6 9 -12 10 -11 4 5 -4 11 -8 27 -10 35 -1 8 -8 14 -14 12 -6
-1 -11 3 -11 9 0 6 7 8 16 5 19 -7 47 12 38 25 -3 5 -2 9 3 10 4 0 18 2 30 3
16 2 20 -2 17 -17 -2 -12 1 -27 8 -34 8 -10 6 -13 -10 -10 -23 3 -42 17 -25
17 6 0 9 9 6 20 -7 25 -12 21 -18 -11 -3 -13 -9 -25 -15 -27 -5 -2 -10 -8 -10
-14 0 -7 4 -7 13 -1 15 13 47 13 47 0 0 -5 7 -4 15 3 11 9 12 16 5 25 -13 16
0 28 16 14 7 -5 35 -11 62 -12 28 -1 48 -5 45 -9 -2 -5 1 -8 6 -8 6 0 11 5 11
10 0 6 9 1 20 -10 11 -11 25 -20 32 -20 6 0 8 -3 5 -7 -4 -3 -2 -12 4 -20 9
-9 8 -13 0 -13 -6 0 -11 -5 -11 -10 0 -6 11 -3 25 6 19 13 23 20 15 34 -7 14
-6 20 7 24 9 4 21 2 27 -4 8 -8 5 -9 -9 -5 -14 5 -16 4 -7 -3 17 -11 15 -21
-6 -47 -17 -20 -17 -20 5 -1 13 10 35 20 49 22 15 1 31 9 35 16 8 12 13 4 10
-15 -1 -4 6 -10 14 -13 8 -3 13 -9 11 -13 -3 -4 3 -7 13 -7 10 0 18 6 18 13 0
7 -4 10 -8 8 -11 -8 -40 6 -34 16 3 4 12 6 20 2 8 -3 15 0 15 5 0 16 -18 24
-25 12 -4 -6 -12 -7 -18 -3 -7 4 -15 8 -19 8 -5 0 -8 3 -8 8 0 4 0 11 0 16 0
6 9 9 19 8 11 0 17 -5 15 -9 -3 -5 -10 -5 -16 -2 -7 5 -8 2 -4 -5 5 -7 15 -10
23 -7 9 4 22 1 29 -5 16 -13 19 2 4 17 -7 7 -2 10 15 10 18 0 22 -3 13 -13 -7
-9 -6 -14 6 -19 9 -3 13 -10 10 -15 -3 -5 0 -9 5 -9 14 0 14 17 1 25 -15 9 0
34 20 32 10 -1 16 -5 14 -9 -3 -5 -10 -5 -16 -2 -7 4 -8 2 -4 -5 4 -6 16 -9
27 -6 14 5 24 -2 38 -25 15 -25 20 -28 25 -15 3 9 2 14 -2 11 -4 -2 -15 8 -23
23 l-16 27 46 -1 c25 0 52 -4 59 -8 6 -5 12 -4 12 2 0 5 9 9 20 8 11 -1 20 -5
20 -10 0 -5 -6 -7 -12 -4 -9 3 -14 -6 -15 -27 -1 -26 0 -28 7 -10 12 31 28 38
47 22 9 -7 14 -8 11 -3 -4 6 2 16 12 23 16 10 21 9 30 -6 10 -15 11 -15 6 0
-3 9 -2 19 2 21 4 2 1 2 -6 0 -8 -1 -12 3 -9 9 2 7 12 12 21 10 14 -3 16 1 11
19 l-7 22 29 -21 c23 -16 33 -18 41 -10 16 16 15 -4 0 -21 -11 -11 -10 -12 1
-6 10 6 13 4 9 -7 -4 -8 0 -15 7 -15 10 0 11 5 5 18 -7 12 -6 19 3 22 9 4 8 8
-3 16 -9 6 -18 7 -26 0 -8 -7 -14 -6 -19 1 -6 9 -1 12 35 14 19 2 61 -34 54
-46 -3 -5 -12 -4 -20 3 -8 6 -14 7 -14 3 0 -5 9 -15 21 -22 12 -8 18 -9 14 -3
-3 6 1 11 9 11 18 0 21 -11 6 -26 -6 -6 -2 -14 13 -23 20 -13 21 -13 8 3 -12
15 -12 19 4 34 17 16 17 16 12 -1 -7 -17 27 -62 48 -62 6 -1 9 -5 8 -11 -1 -5
6 -10 16 -10 10 0 18 6 18 12 0 7 -6 10 -13 7 -6 -2 -15 1 -19 6 -3 6 -11 9
-16 6 -5 -4 -9 1 -9 9 0 18 16 21 25 6 10 -17 24 -11 22 9 -1 15 -4 17 -14 9
-9 -7 -13 -7 -13 1 0 7 -5 9 -12 5 -7 -5 -8 -3 -3 5 6 10 3 11 -14 2 -16 -9
-20 -9 -15 2 6 16 36 18 47 3 6 -8 10 -7 14 2 4 10 9 9 19 -5 13 -17 14 -17 8
0 -5 13 -2 16 14 14 29 -4 52 -26 45 -43 -3 -8 -1 -14 4 -14 12 0 13 31 2 46
-5 6 1 10 16 10 14 0 21 -4 17 -10 -11 -19 -12 -46 -1 -46 5 0 7 5 4 10 -3 6
-1 10 4 10 6 0 10 3 10 8 -4 21 3 31 20 29 11 0 17 -5 15 -9 -3 -5 -11 -5 -17
-2 -7 4 -9 4 -5 -1 4 -4 2 -15 -5 -23 -10 -12 -9 -16 2 -20 7 -2 22 -13 32
-23 11 -11 19 -15 19 -10 0 6 -8 16 -17 23 -30 22 -28 41 3 37 4 0 10 5 15 12
4 7 19 14 33 15 14 0 23 -3 20 -8 -3 -4 2 -8 10 -8 9 0 16 6 16 13 0 8 4 7 10
-3 5 -8 10 -10 10 -4 0 5 11 10 24 10 14 0 22 -4 20 -8 -3 -4 1 -8 8 -8 10 0
9 -3 -2 -9 -8 -6 -18 -7 -24 -4 -5 3 -6 1 -2 -5 5 -8 2 -10 -9 -6 -14 6 -14 8
2 21 10 8 12 12 6 8 -7 -3 -21 -8 -30 -10 -10 -2 -27 -7 -37 -11 -13 -5 -17
-4 -12 4 3 6 1 14 -5 18 -7 4 -9 3 -6 -3 3 -5 0 -10 -8 -11 -8 -1 -22 -3 -29
-4 -12 -1 -13 -6 -5 -21 6 -10 13 -16 16 -13 3 3 15 0 27 -6 11 -6 18 -7 14
-3 -11 12 11 35 34 35 10 0 17 -4 13 -9 -3 -5 0 -13 5 -16 7 -5 6 -11 -5 -19
-15 -10 -14 -12 4 -12 11 0 17 4 15 8 -3 4 0 8 7 8 7 0 4 7 -7 16 -18 15 -18
15 4 9 13 -4 22 -2 22 4 0 6 5 11 11 11 5 0 8 -4 5 -9 -3 -5 0 -11 7 -14 8 -3
14 1 14 9 0 8 -4 14 -9 14 -5 0 -6 5 -3 11 5 7 13 5 25 -6 16 -14 18 -14 31 2
12 16 12 17 -2 6 -22 -18 -33 -3 -11 14 9 8 11 12 5 8 -24 -12 -53 -14 -53 -4
0 6 6 9 13 6 6 -2 20 0 29 4 12 7 21 3 33 -13 l16 -23 -3 25 c-2 18 2 25 13
24 9 -1 16 5 16 12 0 7 -3 11 -7 9 -8 -5 -5 58 3 73 4 6 3 13 -2 16 -6 4 -6
18 -1 38 5 17 7 35 4 39 -3 5 1 9 8 9 10 0 9 3 -1 9 -8 5 -15 25 -16 44 0 20
3 33 7 31 4 -3 1 8 -7 22 -8 15 -11 32 -8 37 3 6 1 7 -6 3 -6 -4 -9 -12 -6
-17 10 -15 -2 -10 -21 8 -13 13 -18 15 -22 5 -3 -10 -7 -10 -18 -1 -11 9 -14
8 -14 -2 0 -11 -2 -11 -10 1 -9 13 -11 13 -21 0 -9 -13 -10 -13 -6 0 2 8 12
15 23 15 10 0 20 7 22 16 2 10 14 16 34 17 37 1 45 8 52 44 6 35 15 50 26 43
5 -3 11 -1 15 4 3 6 -5 8 -19 5 -22 -4 -24 -1 -20 18 3 13 6 34 7 48 1 15 7
24 15 22 8 -1 11 2 7 8 -3 6 -10 8 -15 5 -13 -8 -18 18 -8 38 6 11 5 17 -2 17
-7 0 -7 7 1 21 9 17 8 20 -2 14 -9 -6 -11 -2 -6 14 7 28 -21 43 -85 44 -40 0
-48 3 -43 16 4 14 4 14 -7 1 -13 -16 -63 -25 -53 -10 3 5 0 12 -6 16 -7 4 -9
3 -5 -4 10 -17 -13 -25 -31 -10 -9 7 -14 8 -10 2 4 -7 -12 -11 -48 -11 -36 0
-52 4 -48 11 4 6 -1 5 -11 -3 -14 -12 -19 -12 -26 -2 -6 11 -9 11 -14 0 -5
-11 -7 -11 -12 -1 -3 6 -10 12 -15 12 -6 0 -7 -6 -3 -12 5 -9 2 -9 -9 1 -14
11 -17 11 -17 0 0 -11 -2 -11 -10 1 -5 8 -10 10 -10 4 0 -6 -7 -11 -15 -11
-18 0 -20 14 -3 19 6 2 12 12 14 21 1 9 -1 15 -6 12 -5 -3 -10 -1 -12 5 -2 6
-9 0 -17 -12 -13 -21 -13 -22 2 -10 22 19 27 0 5 -20 -10 -10 -18 -17 -19 -15
-7 23 -6 44 4 56 9 12 9 13 0 7 -8 -4 -13 -1 -13 9 0 9 5 13 11 10 6 -4 5 3
-3 14 -11 18 -11 23 1 30 8 5 9 10 3 12 -6 2 -12 33 -13 69 -2 68 -15 120 -32
132 -7 4 -6 12 2 22 8 9 9 16 3 16 -16 0 -23 -30 -11 -52 9 -16 8 -19 -3 -12
-7 5 -20 9 -28 10 -25 1 -50 15 -60 34 -6 12 -5 17 5 17 7 0 11 -7 8 -16 -3
-11 0 -10 11 3 9 11 16 15 16 9 0 -15 33 -11 43 5 4 6 16 12 27 12 13 0 17 5
13 20 -4 15 0 20 13 21 18 0 18 1 0 8 -18 7 -18 8 -3 14 9 3 17 12 17 19 0 9
-3 8 -10 -2 -7 -11 -10 -6 -10 20 0 20 6 42 13 49 10 11 10 13 0 7 -10 -5 -13
7 -14 51 -1 66 -6 104 -17 115 -4 4 -32 8 -62 9 -37 2 -59 8 -68 18 -11 14
-11 14 -6 -1z m-1351 -266 c19 9 19 8 3 -5 -18 -14 -25 -33 -10 -23 4 2 8 -4
9 -14 1 -11 -2 -22 -8 -25 -5 -4 -9 -11 -9 -17 0 -6 7 -5 17 3 15 12 16 12 8
-1 -13 -20 -13 -34 0 -42 5 -4 0 -6 -11 -6 -12 1 -27 11 -34 23 -10 16 -10 18
1 8 19 -18 34 -16 19 2 -10 12 -10 19 -2 27 7 7 12 17 12 23 -1 5 -9 0 -19
-12 l-19 -23 2 24 c0 14 6 22 14 19 8 -4 10 0 6 11 -3 9 -9 14 -13 12 -4 -3
-7 4 -7 15 0 17 2 18 11 6 8 -11 16 -13 30 -5z m1332 -118 c-3 -3 -12 -4 -19
-1 -8 3 -5 6 6 6 11 1 17 -2 13 -5z m37 -10 c5 -14 4 -15 -9 -4 -17 14 -19 20
-6 20 5 0 12 -7 15 -16z m-1764 -375 c0 -15 -18 -19 -23 -6 -3 8 1 14 9 14 8
0 14 -4 14 -8z m1526 -101 c5 -7 3 -8 -5 -3 -9 5 -12 0 -10 -16 4 -28 -7 -49
-24 -49 -7 0 -4 5 5 11 10 5 15 16 12 24 -6 15 1 45 10 45 3 0 8 -5 12 -12z
m-11 -88 c3 -5 1 -10 -4 -10 -6 0 -11 5 -11 10 0 6 2 10 4 10 3 0 8 -4 11 -10z
m785 -130 c0 -5 -5 -10 -11 -10 -5 0 -7 5 -4 10 3 6 8 10 11 10 2 0 4 -4 4
-10z m-29 -43 c-10 -9 -11 -8 -5 6 3 10 9 15 12 12 3 -3 0 -11 -7 -18z m-509
-237 c-4 -3 -11 -9 -15 -15 -5 -6 -7 -3 -4 6 3 9 0 22 -6 29 -8 9 -5 8 10 -1
12 -7 19 -16 15 -19z m-842 2 c0 -4 -9 -8 -20 -9 -11 -1 -20 2 -20 5 0 4 9 8
20 9 11 1 20 -2 20 -5z m806 -26 c-1 -24 -4 -32 -12 -25 -6 5 -14 6 -17 2 -4
-3 -7 -1 -7 5 0 7 7 12 16 12 10 0 14 6 11 14 -5 11 0 26 8 26 1 0 1 -15 1
-34z m51 -1 c0 -8 -3 -13 -5 -10 -3 3 -11 0 -19 -6 -16 -14 -17 -3 0 16 16 19
24 19 24 0z m-855 -9 c7 4 8 2 4 -4 -11 -18 -26 -14 -25 6 0 10 3 12 6 4 2 -6
10 -9 15 -6z m769 -33 c9 -10 9 -14 2 -10 -7 5 -19 -2 -28 -17 -20 -31 -42
-39 -49 -20 -3 9 5 25 21 40 31 29 36 29 54 7z m-1547 -55 c-3 -4 0 -8 5 -8 6
0 11 5 11 12 0 6 7 3 15 -8 13 -16 14 -16 9 -1 -5 13 -2 16 14 14 45 -7 62
-47 26 -61 -8 -3 -12 -2 -9 3 11 19 -31 34 -52 18 -9 -6 -15 -4 -19 6 -3 9
-15 14 -29 13 -14 -2 -22 1 -19 8 3 7 15 12 29 12 13 0 21 -4 19 -8z m176 2
c0 13 1 13 10 0 9 -13 10 -13 10 0 0 13 1 13 10 0 8 -13 10 -13 10 -1 0 11 4
9 14 -5 14 -18 15 -18 22 -1 6 17 7 17 21 -3 8 -11 18 -18 23 -15 12 7 23 -12
15 -26 -5 -6 -12 -3 -21 9 -13 19 -36 23 -50 9 -4 -3 -12 -3 -18 0 -18 12 -35
12 -42 2 -9 -15 -34 10 -27 28 5 12 7 12 14 1 7 -10 9 -10 9 2z m438 -4 c6 9
43 11 62 4 3 -1 7 -2 10 -2 3 0 7 -8 7 -19 2 -17 -1 -18 -13 -9 -11 10 -17 10
-29 0 -12 -10 -18 -10 -30 0 -13 10 -19 10 -33 -2 -20 -17 -50 -35 -40 -23 4
4 2 15 -5 23 -9 12 -9 14 0 9 7 -5 20 0 30 11 12 12 21 14 26 8 5 -8 9 -8 15
0z m372 8 c0 -8 -19 -13 -24 -6 -3 5 1 9 9 9 8 0 15 -2 15 -3z m35 -14 c-10
-11 -11 -20 -3 -34 8 -14 7 -17 -3 -14 -8 3 -14 10 -14 16 0 5 -3 13 -7 17
-12 12 3 34 22 32 17 -1 17 -3 5 -17z m73 3 c-7 -9 -6 -14 6 -19 9 -3 13 -10
10 -16 -3 -5 -11 -4 -20 3 -10 8 -14 8 -14 0 0 -6 -5 -11 -11 -11 -8 0 -8 5 1
15 9 11 9 19 2 28 -9 10 -6 13 13 13 19 0 22 -3 13 -13z m962 -33 c0 -5 -9 -8
-20 -7 -22 1 -27 13 -7 20 14 5 27 -1 27 -13z"/>
<path d="M2544 1195 c-4 -8 -11 -12 -17 -8 -6 3 -7 1 -3 -5 4 -7 2 -12 -5 -12
-7 0 -9 -3 -5 -7 4 -4 18 5 32 20 14 15 20 27 14 27 -6 0 -13 -7 -16 -15z"/>
<path d="M1095 1129 c10 -10 22 -16 27 -13 12 8 -6 27 -28 30 -14 2 -14 0 1
-17z"/>
<path d="M1196 1128 c3 -5 10 -6 15 -3 13 9 11 12 -6 12 -8 0 -12 -4 -9 -9z"/>
<path d="M1654 1139 c-8 -14 13 -18 30 -6 16 12 16 13 -4 13 -12 0 -23 -4 -26
-7z"/>
<path d="M1606 1125 c-11 -8 -15 -15 -9 -15 6 0 16 7 23 15 16 19 11 19 -14 0z"/>
<path d="M1258 2528 c9 -9 9 -15 -1 -27 -7 -10 -2 -8 11 3 23 20 30 32 12 21
-5 -3 -10 -1 -10 4 0 6 -5 11 -12 11 -9 0 -9 -3 0 -12z"/>
<path d="M1263 2483 c-7 -3 -13 -8 -13 -13 0 -10 24 -7 28 4 5 11 -1 14 -15 9z"/>
<path d="M310 2451 c0 -6 4 -13 10 -16 6 -3 7 1 4 9 -7 18 -14 21 -14 7z"/>
<path d="M280 2350 c-9 -6 -10 -10 -3 -10 6 0 15 5 18 10 8 12 4 12 -15 0z"/>
<path d="M315 2341 c-3 -5 0 -13 6 -17 7 -4 9 -3 5 4 -3 5 0 13 6 15 9 4 10 6
1 6 -6 1 -14 -3 -18 -8z"/>
<path d="M2790 2270 c14 -9 6 -15 -15 -10 -5 1 -6 -2 -2 -6 4 -4 15 -9 23 -10
9 -1 13 0 10 3 -3 4 -2 11 4 17 6 8 2 12 -13 13 -17 2 -19 0 -7 -7z"/>
<path d="M313 2253 c4 -3 3 -11 -3 -17 -6 -8 -3 -12 10 -12 15 0 16 4 9 18 -5
10 -13 18 -16 18 -3 0 -3 -3 0 -7z"/>
<path d="M2692 2251 c5 -19 35 -23 35 -5 0 8 -4 14 -9 14 -4 0 -8 -6 -8 -12 0
-9 -4 -8 -11 2 -8 12 -10 12 -7 1z"/>
<path d="M2790 2220 c-9 -6 -10 -10 -3 -10 6 0 15 5 18 10 8 12 4 12 -15 0z"/>
<path d="M313 2133 c4 -3 3 -11 -3 -17 -6 -8 -3 -12 10 -12 15 0 16 4 9 18 -5
10 -13 18 -16 18 -3 0 -3 -3 0 -7z"/>
<path d="M293 1975 c0 -8 4 -12 9 -9 5 3 6 10 3 15 -9 13 -12 11 -12 -6z"/>
<path d="M352 1906 c7 -8 15 -12 17 -11 5 6 -10 25 -20 25 -5 0 -4 -6 3 -14z"/>
<path d="M380 1906 c0 -2 8 -10 18 -17 15 -13 16 -12 3 4 -13 16 -21 21 -21
13z"/>
<path d="M606 1865 c-4 -13 -10 -14 -19 -7 -15 13 -43 -1 -33 -16 3 -6 -2 -15
-11 -21 -10 -6 -13 -10 -8 -11 17 0 38 17 32 27 -3 5 0 10 7 10 8 0 12 -6 9
-14 -6 -16 9 -17 26 0 11 10 13 9 8 -6 -4 -10 -3 -15 2 -12 5 3 12 1 16 -5 3
-5 11 -10 18 -10 6 0 2 6 -9 14 -10 8 -15 18 -11 22 4 5 11 4 15 -2 11 -15 55
-16 49 0 -3 7 1 13 8 13 7 0 11 -6 8 -13 -3 -10 6 -12 36 -10 42 3 59 -12 38
-33 -9 -9 -8 -11 5 -6 20 8 19 42 -2 51 -25 12 -40 13 -34 3 8 -14 -12 -11
-25 4 -6 8 -7 18 -3 22 4 5 0 4 -8 -1 -26 -15 -90 -13 -99 3 -7 13 -9 13 -15
-2z m20 -17 c4 -7 4 -10 -1 -6 -4 4 -15 2 -24 -5 -14 -11 -14 -10 -2 6 16 20
18 21 27 5z m60 -10 c3 -4 -1 -5 -10 -4 -8 1 -18 5 -22 8 -3 4 1 5 10 4 8 -1
18 -5 22 -8z"/>
<path d="M490 1860 c0 -5 5 -10 11 -10 5 0 7 5 4 10 -3 6 -8 10 -11 10 -2 0
-4 -4 -4 -10z"/>
<path d="M360 1850 c-9 -6 -10 -10 -3 -10 6 0 15 5 18 10 8 12 4 12 -15 0z"/>
<path d="M790 1850 c0 -5 9 -10 20 -10 16 0 19 -5 16 -25 -3 -17 1 -28 14 -35
15 -8 18 -6 15 8 -1 9 2 22 7 29 5 7 5 14 -2 18 -5 3 -10 3 -10 0 0 -3 -10 1
-22 9 -26 18 -38 20 -38 6z m65 -30 c-3 -5 -12 -10 -18 -10 -7 0 -6 4 3 10 19
12 23 12 15 0z"/>
<path d="M436 1842 c-2 -4 4 -8 14 -8 10 0 16 4 14 8 -3 4 -9 8 -14 8 -5 0
-11 -4 -14 -8z"/>
<path d="M485 1830 c3 -5 8 -10 11 -10 2 0 4 5 4 10 0 6 -5 10 -11 10 -5 0 -7
-4 -4 -10z"/>
<path d="M438 1813 c7 -3 16 -2 19 1 4 3 -2 6 -13 5 -11 0 -14 -3 -6 -6z"/>
<path d="M573 1793 c1 -15 5 -19 13 -13 6 6 14 7 17 3 4 -3 7 -1 7 6 0 7 -6
11 -14 8 -8 -3 -17 -1 -19 6 -3 7 -4 2 -4 -10z"/>
<path d="M673 1795 c0 -6 8 -11 17 -11 9 0 17 5 17 11 0 6 -8 11 -17 11 -9 0
-17 -5 -17 -11z"/>
<path d="M758 1803 c7 -3 16 -2 19 1 4 3 -2 6 -13 5 -11 0 -14 -3 -6 -6z"/>
<path d="M800 1768 c-12 -8 -11 -9 4 -4 13 5 17 2 13 -9 -4 -8 -3 -16 1 -19 4
-3 8 4 9 14 2 25 -9 32 -27 18z"/>
<path d="M840 1750 c0 -5 5 -10 11 -10 5 0 7 5 4 10 -3 6 -8 10 -11 10 -2 0
-4 -4 -4 -10z"/>
<path d="M3335 1689 c-4 -6 -5 -12 -2 -15 2 -3 7 2 10 11 7 17 1 20 -8 4z"/>
<path d="M830 1636 c0 -2 7 -7 16 -10 8 -3 12 -2 9 4 -6 10 -25 14 -25 6z"/>
<path d="M3316 1563 c-6 -14 -5 -15 5 -6 7 7 10 15 7 18 -3 3 -9 -2 -12 -12z"/>
<path d="M3246 1538 c2 -3 1 -8 -3 -11 -5 -2 -2 -2 6 0 7 2 20 -2 27 -8 10 -8
14 -8 14 0 0 6 -6 11 -12 11 -9 0 -9 3 1 9 10 7 7 9 -12 8 -14 -1 -23 -5 -21
-9z"/>
<path d="M3330 1529 c0 -5 5 -7 10 -4 6 3 10 8 10 11 0 2 -4 4 -10 4 -5 0 -10
-5 -10 -11z"/>
<path d="M793 1515 c0 -8 4 -12 9 -9 5 3 6 10 3 15 -9 13 -12 11 -12 -6z"/>
<path d="M835 1510 c3 -5 11 -10 16 -10 6 0 7 5 4 10 -3 6 -11 10 -16 10 -6 0
-7 -4 -4 -10z"/>
<path d="M3326 1488 c3 -5 10 -6 15 -3 13 9 11 12 -6 12 -8 0 -12 -4 -9 -9z"/>
<path d="M786 1452 c-3 -5 1 -9 9 -9 8 0 12 4 9 9 -3 4 -7 8 -9 8 -2 0 -6 -4
-9 -8z"/>
<path d="M815 1371 c-4 -7 -1 -10 7 -9 7 2 12 -5 11 -16 -1 -13 2 -15 10 -7 8
8 7 15 -5 27 -11 11 -18 13 -23 5z"/>
<path d="M3335 1290 c3 -5 8 -10 11 -10 2 0 4 5 4 10 0 6 -5 10 -11 10 -5 0
-7 -4 -4 -10z"/>
<path d="M830 1256 c0 -2 9 -6 20 -9 11 -3 18 -1 14 4 -5 9 -34 13 -34 5z"/>
<path d="M3335 1230 c3 -5 8 -10 11 -10 2 0 4 5 4 10 0 6 -5 10 -11 10 -5 0
-7 -4 -4 -10z"/>
<path d="M860 1210 c-9 -6 -10 -10 -3 -10 6 0 15 5 18 10 8 12 4 12 -15 0z"/>
<path d="M881 1197 c2 -1 13 -9 24 -17 19 -14 19 -14 6 3 -7 9 -18 17 -24 17
-6 0 -8 -1 -6 -3z"/>
<path d="M2614 1182 c3 -5 0 -13 -6 -15 -9 -4 -10 -6 -1 -6 17 -1 25 16 12 25
-7 4 -9 3 -5 -4z"/>
<path d="M1839 1157 c11 -14 11 -21 3 -29 -7 -7 -12 -19 -11 -27 0 -10 4 -7 9
7 5 12 13 22 17 23 4 0 16 2 26 4 18 3 42 -27 30 -39 -3 -3 -1 -7 5 -7 32 -4
37 -6 35 -15 -1 -5 6 -10 16 -10 10 0 18 6 18 12 0 7 -6 10 -13 7 -6 -2 -15 1
-19 6 -3 6 -10 9 -14 6 -5 -2 -8 6 -8 19 0 21 2 23 18 13 10 -6 15 -15 13 -19
-3 -4 0 -8 5 -8 6 0 11 6 11 13 1 6 7 1 15 -13 8 -14 14 -20 15 -15 0 18 -31
56 -41 50 -5 -4 -15 -3 -21 2 -7 4 -29 8 -49 8 -20 0 -44 7 -55 15 -18 14 -18
14 -5 -3z"/>
<path d="M870 1150 c0 -5 5 -10 11 -10 5 0 7 5 4 10 -3 6 -8 10 -11 10 -2 0
-4 -4 -4 -10z"/>
<path d="M2626 1152 c-3 -5 1 -9 9 -9 8 0 12 4 9 9 -3 4 -7 8 -9 8 -2 0 -6 -4
-9 -8z"/>
<path d="M2356 1138 c3 -4 14 -13 26 -19 16 -8 19 -8 13 1 -5 8 -3 11 6 8 8
-3 13 -11 12 -17 -4 -16 5 -14 30 10 12 11 18 20 12 19 -5 -2 -12 -1 -15 0
-14 7 -88 5 -84 -2z m74 -8 c0 -5 -2 -10 -4 -10 -3 0 -8 5 -11 10 -3 6 -1 10
4 10 6 0 11 -4 11 -10z"/>
<path d="M2883 1137 c1 -7 -3 -11 -10 -10 -7 2 -10 -3 -7 -11 7 -17 51 -18 58
0 5 13 -9 27 -31 30 -7 1 -11 -3 -10 -9z m25 -13 c-1 -5 -9 -9 -16 -10 -10 -2
-11 1 -1 12 12 14 24 13 17 -2z"/>
<path d="M910 1130 c0 -5 7 -7 15 -4 8 4 15 8 15 10 0 2 -7 4 -15 4 -8 0 -15
-4 -15 -10z"/>
<path d="M1476 1131 c-3 -4 -1 -13 4 -21 7 -12 11 -12 26 1 15 13 16 12 10
-11 -6 -25 -6 -25 6 -2 6 12 9 25 6 27 -9 10 -47 14 -52 6z m34 -7 c0 -8 -19
-13 -24 -6 -3 5 1 9 9 9 8 0 15 -2 15 -3z"/>
<path d="M2280 1124 c13 -20 60 -31 60 -13 0 14 -18 20 -25 9 -5 -8 -14 -5
-27 7 -20 18 -21 18 -8 -3z"/>
<path d="M2695 1130 c-3 -5 9 -16 27 -25 29 -14 30 -14 14 0 -11 8 -24 15 -29
15 -4 0 -5 5 -2 10 3 6 4 10 1 10 -3 0 -7 -4 -11 -10z"/>
<path d="M2649 1113 c-13 -16 -12 -17 4 -4 9 7 17 15 17 17 0 8 -8 3 -21 -13z"/>
<path d="M920 1110 c-9 -6 -10 -10 -3 -10 6 0 15 5 18 10 8 12 4 12 -15 0z"/>
<path d="M1770 1112 c0 -5 7 -9 15 -9 8 0 12 4 9 9 -3 4 -9 8 -15 8 -5 0 -9
-4 -9 -8z"/>
<path d="M1855 1110 c-3 -6 1 -7 9 -4 18 7 21 14 7 14 -6 0 -13 -4 -16 -10z"/>
<path d="M1891 1104 c0 -11 3 -14 6 -6 3 7 2 16 -1 19 -3 4 -6 -2 -5 -13z"/>
<path d="M2230 1110 c0 -5 5 -10 11 -10 5 0 7 5 4 10 -3 6 -8 10 -11 10 -2 0
-4 -4 -4 -10z"/>
<path d="M2491 1103 c0 -11 3 -13 6 -5 2 6 10 9 15 6 7 -4 8 -2 4 4 -11 18
-26 14 -25 -5z"/>
<path d="M3293 1101 c0 -11 5 -18 9 -15 4 3 5 11 1 19 -7 21 -12 19 -10 -4z"/>
<path d="M1163 1103 c-15 -5 -17 -23 -4 -23 5 0 11 7 15 15 3 8 4 15 3 14 -1
0 -8 -3 -14 -6z"/>
<path d="M950 1091 c0 -6 4 -13 10 -16 6 -3 7 1 4 9 -7 18 -14 21 -14 7z"/>
<path d="M1633 1085 c0 -8 4 -12 9 -9 4 3 8 9 8 15 0 5 -4 9 -8 9 -5 0 -9 -7
-9 -15z"/>
<path d="M2397 1089 c7 -7 15 -10 18 -7 3 3 -2 9 -12 12 -14 6 -15 5 -6 -5z"/>
<path d="M2777 1093 c-9 -8 12 -33 27 -33 6 0 3 5 -7 11 -9 6 -15 14 -12 20 7
10 2 12 -8 2z"/>
<path d="M3110 1090 c0 -5 5 -10 10 -10 6 0 10 5 10 10 0 6 -4 10 -10 10 -5 0
-10 -4 -10 -10z"/>
<path d="M1009 1073 c-13 -16 -12 -17 4 -4 16 13 21 21 13 21 -2 0 -10 -8 -17
-17z"/>
<path d="M1533 1073 c1 -15 5 -19 13 -13 6 6 14 7 17 3 4 -3 7 -1 7 6 0 7 -6
11 -14 8 -8 -3 -17 -1 -19 6 -3 7 -4 2 -4 -10z"/>
<path d="M2150 1086 c0 -2 8 -10 18 -17 15 -13 16 -12 3 4 -13 16 -21 21 -21
13z"/>
<path d="M2314 1078 c10 -6 22 -6 26 -2 5 5 -3 10 -18 11 -22 1 -24 0 -8 -9z"/>
<path d="M2893 1073 c2 -12 7 -26 12 -30 4 -5 5 -3 1 4 -3 6 4 19 16 27 12 9
17 16 11 16 -7 0 -15 -5 -19 -11 -4 -8 -9 -7 -15 2 -6 10 -8 8 -6 -8z"/>
<path d="M2981 1074 c0 -11 3 -14 6 -6 3 7 2 16 -1 19 -3 4 -6 -2 -5 -13z"/>
<path d="M2096 1063 c-6 -14 -5 -15 5 -6 7 7 10 15 7 18 -3 3 -9 -2 -12 -12z"/>
<path d="M2134 1066 c1 -8 5 -18 8 -22 4 -3 5 1 4 10 -1 8 -5 18 -8 22 -4 3
-5 -1 -4 -10z"/>
<path d="M2440 1070 c-9 -6 -10 -10 -3 -10 6 0 15 5 18 10 8 12 4 12 -15 0z"/>
<path d="M1193 1055 c0 -8 4 -12 9 -9 5 3 6 10 3 15 -9 13 -12 11 -12 -6z"/>
<path d="M1613 1055 c0 -8 4 -12 9 -9 5 3 6 10 3 15 -9 13 -12 11 -12 -6z"/>
<path d="M1100 1056 c0 -2 8 -10 18 -17 15 -13 16 -12 3 4 -13 16 -21 21 -21
13z"/>
<path d="M1693 1045 c0 -8 4 -12 9 -9 5 3 6 10 3 15 -9 13 -12 11 -12 -6z"/>
<path d="M2946 1048 c3 -5 10 -6 15 -3 13 9 11 12 -6 12 -8 0 -12 -4 -9 -9z"/>
<path d="M3195 1041 c-3 -5 -2 -12 3 -15 5 -3 9 1 9 9 0 17 -3 19 -12 6z"/>
</g>
</svg>
