<?xml version="1.0" standalone="no"?>
<!DOCTYPE svg PUBLIC "-//W3C//DTD SVG 20010904//EN"
 "http://www.w3.org/TR/2001/REC-SVG-20010904/DTD/svg10.dtd">
<svg version="1.0" xmlns="http://www.w3.org/2000/svg"
 width="500.000000pt" height="500.000000pt" viewBox="0 0 500.000000 500.000000"
 preserveAspectRatio="xMidYMid meet">
<metadata>
Created by potrace 1.14, written by Peter Selinger 2001-2017
</metadata>
<g transform="translate(0.000000,500.000000) scale(0.100000,-0.100000)"
fill="#000000" stroke="none">
<path d="M1465 4012 c-55 -1 -104 -7 -109 -12 -4 -4 -9 -30 -11 -57 l-2 -48
-114 -5 -114 -5 -5 -55 -5 -55 -57 -3 -57 -3 -3 -57 -3 -57 -55 -3 c-30 -2
-57 -7 -60 -12 -3 -4 -5 -139 -5 -299 0 -160 -2 -292 -5 -293 -3 0 -27 -2 -54
-3 -54 -3 -65 -13 -60 -58 5 -57 -2 -66 -51 -63 -25 1 -50 -1 -57 -5 -14 -9
-19 -443 -5 -471 6 -14 20 -18 61 -18 l54 0 -3 -42 c-3 -65 7 -77 60 -74 25 1
49 -2 53 -8 3 -6 7 -62 8 -124 l1 -112 -46 4 c-77 7 -76 10 -75 -181 1 -92 2
-171 3 -175 0 -5 55 -8 120 -8 l120 0 0 -296 c0 -164 3 -300 7 -303 3 -3 29
-6 57 -6 l52 0 3 -63 c2 -39 7 -62 15 -63 7 -1 630 -2 1385 -3 1365 -1 1373
-1 1377 19 3 11 6 40 7 64 l3 45 52 0 c28 1 54 4 57 7 3 3 6 137 6 297 1 193
4 294 11 298 6 3 60 6 120 5 60 -1 110 2 110 6 1 4 2 84 3 176 2 190 4 185
-75 182 l-46 -3 1 115 c2 126 5 133 63 126 49 -5 61 8 58 67 l-2 50 53 0 c42
0 55 4 63 19 6 10 8 21 4 24 -3 4 -1 12 4 19 14 18 5 409 -10 424 -3 3 -30 7
-59 8 l-53 1 0 52 c0 28 -3 54 -7 58 -4 4 -28 8 -55 10 -26 1 -50 3 -53 4 -3
0 -5 132 -5 292 0 187 -4 294 -10 299 -6 5 -33 10 -60 12 l-50 3 -5 55 -5 55
-55 5 -55 5 -5 55 -5 55 -114 5 -115 5 -1 46 c-1 25 -5 51 -9 58 -5 7 -46 11
-117 11 -123 0 -122 0 -123 -74 l-1 -41 -120 -5 -120 -5 -1 -50 c-1 -27 -2
-53 -3 -57 0 -5 -298 -8 -661 -8 -521 0 -660 3 -661 13 -1 6 -3 28 -4 47 -1
19 -3 41 -4 48 -1 9 -32 12 -119 12 l-118 0 0 50 c-1 31 -6 56 -15 63 -9 8
-47 11 -114 9z"/>
</g>
</svg>
